<svg width="58" height="55" viewBox="0 0 58 55" fill="none" xmlns="http://www.w3.org/2000/svg">
<path d="M46.2423 44C43.0888 44 40.5602 46.4475 40.5602 49.5C40.5602 50.9587 41.1589 52.3576 42.2245 53.3891C43.2901 54.4205 44.7353 55 46.2423 55C47.7493 55 49.1946 54.4205 50.2602 53.3891C51.3258 52.3576 51.9245 50.9587 51.9245 49.5C51.9245 48.0413 51.3258 46.6424 50.2602 45.6109C49.1946 44.5795 47.7493 44 46.2423 44ZM0.785156 0V5.5H6.46731L16.6952 26.3725L12.8313 33.11C12.4052 33.88 12.1495 34.7875 12.1495 35.75C12.1495 37.2087 12.7481 38.6076 13.8137 39.6391C14.8793 40.6705 16.3246 41.25 17.8316 41.25H51.9245V35.75H19.0249C18.8365 35.75 18.6558 35.6776 18.5226 35.5486C18.3894 35.4197 18.3146 35.2448 18.3146 35.0625C18.3146 34.925 18.343 34.815 18.3998 34.7325L20.9568 30.25H42.1228C44.2536 30.25 46.1287 29.095 47.0947 27.4175L57.2657 9.625C57.4646 9.185 57.6066 8.7175 57.6066 8.25C57.6066 7.52065 57.3073 6.82118 56.7745 6.30546C56.2417 5.78973 55.5191 5.5 54.7656 5.5H12.7461L10.0755 0M17.8316 44C14.678 44 12.1495 46.4475 12.1495 49.5C12.1495 50.9587 12.7481 52.3576 13.8137 53.3891C14.8793 54.4205 16.3246 55 17.8316 55C19.3386 55 20.7839 54.4205 21.8495 53.3891C22.9151 52.3576 23.5138 50.9587 23.5138 49.5C23.5138 48.0413 22.9151 46.6424 21.8495 45.6109C20.7839 44.5795 19.3386 44 17.8316 44Z" fill="#3046BE"/>
</svg>
