<svg width="53" height="50" viewBox="0 0 53 50" fill="none" xmlns="http://www.w3.org/2000/svg">
<path fill-rule="evenodd" clip-rule="evenodd" d="M26.8026 42.8585C41.067 42.8585 52.6305 35.7154 52.6305 21.4293C52.6305 7.14309 41.067 0 26.8026 0C12.5382 0 0.974609 7.14309 0.974609 21.4293C0.974609 29.1438 4.347 34.7761 9.69708 38.3227L10.0292 46.0408C10.0618 46.7954 10.3075 47.5269 10.7396 48.1559C11.1717 48.7848 11.7736 49.2871 12.4799 49.6081C13.1862 49.9292 13.9699 50.0567 14.7458 49.9768C15.5217 49.897 16.2602 49.6128 16.8809 49.1551L25.4484 42.8335C25.8986 42.8514 26.3487 42.8585 26.8026 42.8585Z" fill="#3046BE"/>
</svg>
