<svg width="51" height="51" viewBox="0 0 51 51" fill="none" xmlns="http://www.w3.org/2000/svg">
<path d="M0.486336 2.98881L0.486336 47.9901C0.488244 48.4457 0.656087 48.8923 0.971795 49.2818C1.2875 49.6713 1.73912 49.989 2.27804 50.2006C2.81696 50.4123 3.42277 50.5099 4.03027 50.4829C4.63776 50.456 5.22393 50.3055 5.72568 50.0476L49.1364 27.547C50.9363 26.6145 50.9363 24.3694 49.1364 23.4344L5.72568 0.933752C5.22497 0.673306 4.63851 0.520575 4.03 0.492152C3.4215 0.463729 2.81423 0.560701 2.27417 0.772532C1.73411 0.984363 1.28191 1.30295 0.966713 1.69368C0.651517 2.08442 0.485376 2.53235 0.486336 2.98881Z" fill="white"/>
</svg>
