<svg width="51" height="51" viewBox="0 0 51 51" fill="none" xmlns="http://www.w3.org/2000/svg">
<path d="M50.4863 47.9858V2.98452C50.4844 2.5289 50.3166 2.0823 50.0009 1.69279C49.6852 1.30328 49.2335 0.985609 48.6946 0.773968C48.1557 0.562328 47.5499 0.464733 46.9424 0.491692C46.3349 0.51865 45.7487 0.669139 45.247 0.926961L1.83624 23.4276C0.036359 24.3601 0.036359 26.6052 1.83624 27.5402L45.247 50.0409C45.7477 50.3013 46.3341 50.454 46.9427 50.4825C47.5512 50.5109 48.1584 50.4139 48.6985 50.2021C49.2386 49.9902 49.6907 49.6717 50.0059 49.2809C50.3211 48.8902 50.4873 48.4423 50.4863 47.9858Z" fill="white"/>
</svg>
