<svg width="51" height="50" viewBox="0 0 51 50" fill="none" xmlns="http://www.w3.org/2000/svg">
<path d="M48.7786 20.833C48.7786 19.7279 48.3397 18.6681 47.5583 17.8867C46.7769 17.1053 45.717 16.6663 44.612 16.6663H31.4453L33.4453 7.14551C33.487 6.93717 33.5078 6.70801 33.5078 6.47884C33.5078 5.62467 33.1536 4.83301 32.5911 4.27051L30.3828 2.08301L16.6745 15.7913C15.9036 16.5622 15.4453 17.6038 15.4453 18.7497V39.583C15.4453 40.6881 15.8843 41.7479 16.6657 42.5293C17.4471 43.3107 18.5069 43.7497 19.612 43.7497H38.362C40.0911 43.7497 41.5703 42.708 42.1953 41.208L48.487 26.5205C48.6745 26.0413 48.7786 25.5413 48.7786 24.9997V20.833ZM2.94531 43.7497H11.2786V18.7497H2.94531V43.7497Z" fill="#3046BE"/>
</svg>
