<svg width="85" height="85" viewBox="0 0 85 85" fill="none" xmlns="http://www.w3.org/2000/svg">
<path d="M84.5181 79.8279C78.3003 68.6494 68.7184 60.6338 57.5362 56.834C63.0674 53.4098 67.3649 48.1921 69.7685 41.9822C72.1722 35.7723 72.5492 28.9136 70.8416 22.4593C69.1341 16.005 65.4364 10.3121 60.3164 6.25474C55.1964 2.1974 48.9372 0 42.5 0C36.0628 0 29.8036 2.1974 24.6836 6.25474C19.5636 10.3121 15.8659 16.005 14.1584 22.4593C12.4508 28.9136 12.8278 35.7723 15.2315 41.9822C17.6351 48.1921 21.9326 53.4098 27.4638 56.834C16.2816 60.6295 6.69969 68.6451 0.481895 79.8279C0.253877 80.2145 0.102635 80.6447 0.0370912 81.0931C-0.0284527 81.5415 -0.0069701 81.9991 0.100271 82.4387C0.207513 82.8783 0.398341 83.2912 0.661496 83.6529C0.924652 84.0145 1.2548 84.3178 1.63247 84.5446C2.01014 84.7715 2.42768 84.9174 2.86045 84.9737C3.29322 85.03 3.73245 84.9957 4.15224 84.8726C4.57202 84.7495 4.96386 84.5403 5.30462 84.2572C5.64538 83.9741 5.92817 83.6229 6.13629 83.2243C13.8279 69.4008 27.423 61.1475 42.5 61.1475C57.577 61.1475 71.1721 69.4008 78.8637 83.2243C79.0718 83.6229 79.3546 83.9741 79.6954 84.2572C80.0361 84.5403 80.428 84.7495 80.8478 84.8726C81.2675 84.9957 81.7068 85.03 82.1395 84.9737C82.5723 84.9174 82.9899 84.7715 83.3675 84.5446C83.7452 84.3178 84.0753 84.0145 84.3385 83.6529C84.6017 83.2912 84.7925 82.8783 84.8997 82.4387C85.007 81.9991 85.0285 81.5415 84.9629 81.0931C84.8974 80.6447 84.7461 80.2145 84.5181 79.8279ZM19.6374 30.5795C19.6374 25.8772 20.9783 21.2806 23.4905 17.3708C26.0027 13.461 29.5733 10.4137 33.7509 8.6142C37.9285 6.81472 42.5254 6.34389 46.9603 7.26126C51.3952 8.17863 55.4689 10.443 58.6663 13.768C61.8636 17.093 64.0411 21.3293 64.9233 25.9412C65.8054 30.5531 65.3527 35.3335 63.6222 39.6778C61.8918 44.0222 58.9615 47.7353 55.2018 50.3478C51.442 52.9602 47.0218 54.3546 42.5 54.3546C36.4385 54.3479 30.6271 51.8408 26.3409 47.3836C22.0547 42.9264 19.6439 36.883 19.6374 30.5795Z" fill="#3046BE"/>
</svg>
