<svg width="38" height="38" viewBox="0 0 38 38" fill="none" xmlns="http://www.w3.org/2000/svg">
<path d="M37.7846 35.6878C35.0048 30.6903 30.7212 27.1069 25.7221 25.4081C28.1949 23.8773 30.1161 21.5447 31.1906 18.7685C32.2652 15.9923 32.4338 12.9261 31.6704 10.0406C30.907 7.15518 29.2539 4.6101 26.965 2.79624C24.676 0.982365 21.8778 0 19 0C16.1222 0 13.324 0.982365 11.035 2.79624C8.7461 4.6101 7.093 7.15518 6.32962 10.0406C5.56624 12.9261 5.73478 15.9923 6.80936 18.7685C7.88394 21.5447 9.80514 23.8773 12.2779 25.4081C7.27881 27.105 2.99516 30.6884 0.215435 35.6878C0.113498 35.8606 0.0458839 36.0529 0.0165819 36.2534C-0.01272 36.4539 -0.00311605 36.6584 0.0448272 36.8549C0.0927704 37.0515 0.178082 37.236 0.295728 37.3978C0.413374 37.5594 0.560971 37.695 0.729811 37.7964C0.898652 37.8978 1.08532 37.9631 1.27879 37.9882C1.47226 38.0134 1.66863 37.9981 1.85629 37.943C2.04396 37.888 2.21914 37.7945 2.37148 37.6679C2.52382 37.5414 2.65024 37.3844 2.74328 37.2062C6.18189 31.0263 12.2597 27.3365 19 27.3365C25.7403 27.3365 31.8181 31.0263 35.2567 37.2062C35.3498 37.3844 35.4762 37.5414 35.6285 37.6679C35.7809 37.7945 35.956 37.888 36.1437 37.943C36.3314 37.9981 36.5277 38.0134 36.7212 37.9882C36.9147 37.9631 37.1013 37.8978 37.2702 37.7964C37.439 37.695 37.5866 37.5594 37.7043 37.3978C37.8219 37.236 37.9072 37.0515 37.9552 36.8549C38.0031 36.6584 38.0127 36.4539 37.9834 36.2534C37.9541 36.0529 37.8865 35.8606 37.7846 35.6878ZM8.77909 13.6708C8.77909 11.5687 9.37854 9.51367 10.5016 7.76576C11.6247 6.01786 13.221 4.65553 15.0886 3.85105C16.9563 3.04658 19.0113 2.83609 20.994 3.24621C22.9767 3.65633 24.7978 4.66863 26.2273 6.1551C27.6567 7.64157 28.6301 9.53546 29.0245 11.5973C29.4189 13.6591 29.2165 15.7962 28.4429 17.7383C27.6693 19.6805 26.3592 21.3405 24.6784 22.5084C22.9976 23.6763 21.0215 24.2997 19 24.2997C16.2901 24.2967 13.6921 23.1759 11.7759 21.1833C9.85977 19.1906 8.78199 16.4889 8.77909 13.6708Z" fill="#F4E8E8"/>
</svg>
