<svg width="72" height="72" viewBox="0 0 72 72" fill="none" xmlns="http://www.w3.org/2000/svg">
<path d="M35.875 67.75C42.1793 67.75 48.342 65.8806 53.5838 62.3781C58.8256 58.8756 62.9111 53.8974 65.3237 48.073C67.7362 42.2487 68.3674 35.8397 67.1375 29.6565C65.9076 23.4734 62.8718 17.7938 58.414 13.336C53.9562 8.87819 48.2766 5.84239 42.0935 4.61248C35.9104 3.38258 29.5014 4.01381 23.677 6.42635C17.8526 8.8389 12.8744 12.9244 9.37191 18.1662C5.86944 23.408 4 29.5707 4 35.875C4 41.145 5.275 46.114 7.54167 50.4915L4 67.75L21.2585 64.2083C25.636 66.475 30.6085 67.75 35.875 67.75Z" stroke="#3046BE" stroke-width="7" stroke-linecap="round" stroke-linejoin="round"/>
</svg>
