<svg width="81" height="59" viewBox="0 0 81 59" fill="none" xmlns="http://www.w3.org/2000/svg">
<path d="M80.1852 28.5969C77.061 20.5156 71.6373 13.5269 64.5845 8.4946C57.5317 3.46226 49.1588 0.606834 40.5008 0.28125C31.8428 0.606834 23.47 3.46226 16.4171 8.4946C9.3643 13.5269 3.94063 20.5156 0.816448 28.5969C0.605455 29.1805 0.605455 29.8195 0.816448 30.4031C3.94063 38.4844 9.3643 45.473 16.4171 50.5054C23.47 55.5377 31.8428 58.3932 40.5008 58.7188C49.1588 58.3932 57.5317 55.5377 64.5845 50.5054C71.6373 45.473 77.061 38.4844 80.1852 30.4031C80.3962 29.8195 80.3962 29.1805 80.1852 28.5969ZM40.5008 53.4062C26.4227 53.4062 11.5477 42.9672 6.15551 29.5C11.5477 16.0328 26.4227 5.59375 40.5008 5.59375C54.5789 5.59375 69.4539 16.0328 74.8461 29.5C69.4539 42.9672 54.5789 53.4062 40.5008 53.4062Z" fill="#3046BE"/>
<path d="M40.5 13.5625C37.3479 13.5625 34.2665 14.4972 31.6456 16.2485C29.0247 17.9997 26.9819 20.4888 25.7757 23.401C24.5694 26.3132 24.2538 29.5177 24.8687 32.6092C25.4837 35.7008 27.0016 38.5406 29.2305 40.7695C31.4594 42.9984 34.2992 44.5163 37.3908 45.1313C40.4823 45.7462 43.6868 45.4306 46.599 44.2243C49.5112 43.0181 52.0003 40.9753 53.7516 38.3544C55.5028 35.7335 56.4375 32.6521 56.4375 29.5C56.4375 25.2731 54.7584 21.2193 51.7695 18.2305C48.7807 15.2416 44.7269 13.5625 40.5 13.5625ZM40.5 40.125C38.3986 40.125 36.3443 39.5019 34.5971 38.3344C32.8498 37.1669 31.488 35.5075 30.6838 33.566C29.8796 31.6245 29.6692 29.4882 30.0792 27.4272C30.4891 25.3661 31.5011 23.4729 32.987 21.987C34.4729 20.5011 36.3661 19.4891 38.4272 19.0792C40.4882 18.6692 42.6246 18.8796 44.566 19.6838C46.5075 20.488 48.1669 21.8498 49.3344 23.5971C50.5019 25.3443 51.125 27.3986 51.125 29.5C51.125 32.3179 50.0056 35.0204 48.013 37.013C46.0204 39.0056 43.3179 40.125 40.5 40.125Z" fill="#3046BE"/>
</svg>
