<svg width="75" height="76" viewBox="0 0 75 76" fill="none" xmlns="http://www.w3.org/2000/svg">
<path d="M37.1868 41.9369C33.8993 41.9369 30.7463 43.2429 28.4217 45.5675C26.097 47.8922 24.791 51.0451 24.791 54.3327C24.791 57.6203 26.097 60.7732 28.4217 63.0979C30.7463 65.4226 33.8993 66.7286 37.1868 66.7286C40.4744 66.7286 43.6274 65.4226 45.952 63.0979C48.2767 60.7732 49.5827 57.6203 49.5827 54.3327C49.5827 51.0451 48.2767 47.8922 45.952 45.5675C43.6274 43.2429 40.4744 41.9369 37.1868 41.9369ZM31.8743 54.3327C31.8743 52.9238 32.4341 51.5725 33.4303 50.5762C34.4266 49.5799 35.7779 49.0202 37.1868 49.0202C38.5958 49.0202 39.9471 49.5799 40.9434 50.5762C41.9396 51.5725 42.4993 52.9238 42.4993 54.3327C42.4993 55.7417 41.9396 57.0929 40.9434 58.0892C39.9471 59.0855 38.5958 59.6452 37.1868 59.6452C35.7779 59.6452 34.4266 59.0855 33.4303 58.0892C32.4341 57.0929 31.8743 55.7417 31.8743 54.3327Z" fill="#3046BE"/>
<path d="M56.7587 15.7852L45.4998 0L4.10125 33.0721L1.80625 33.0473V33.0827H0V75.5827H74.375V33.0827H70.9679L64.1892 13.2529L56.7587 15.7852ZM63.4844 33.0827H27.9685L54.4212 24.0656L59.8117 22.3408L63.4844 33.0827ZM49.7604 18.1723L22.4542 27.4798L44.0796 10.2035L49.7604 18.1723ZM7.08333 62.0146V46.6438C8.57755 46.1143 9.93476 45.258 11.056 44.1373C12.1773 43.0167 13.0343 41.66 13.5646 40.166H60.8104C61.3405 41.6605 62.1974 43.0178 63.3186 44.1391C64.4399 45.2603 65.7972 46.1172 67.2917 46.6473V62.0181C65.7972 62.5482 64.4399 63.4051 63.3186 64.5264C62.1974 65.6476 61.3405 67.0049 60.8104 68.4994H13.5717C13.0411 67.0037 12.1832 65.6453 11.0607 64.5234C9.93818 63.4015 8.57934 62.5444 7.08333 62.0146Z" fill="#3046BE"/>
</svg>
