<svg width="78" height="71" viewBox="0 0 78 71" fill="none" xmlns="http://www.w3.org/2000/svg">
<path d="M14.1667 28.3333V70.8333H0V28.3333H14.1667ZM28.3333 70.8333C26.4547 70.8333 24.653 70.0871 23.3247 68.7587C21.9963 67.4303 21.25 65.6286 21.25 63.75V28.3333C21.25 26.3854 22.0292 24.6146 23.3396 23.3396L46.6437 0L50.3979 3.75417C51.3542 4.71042 51.9562 6.02083 51.9562 7.47292L51.85 8.60625L48.4854 24.7917H70.8333C72.7119 24.7917 74.5136 25.5379 75.842 26.8663C77.1704 28.1947 77.9167 29.9964 77.9167 31.875V38.9583C77.9167 39.8792 77.7396 40.7292 77.4208 41.5438L66.725 66.5125C65.6625 69.0625 63.1479 70.8333 60.2083 70.8333H28.3333ZM28.3333 63.75H60.3146L70.8333 38.9583V31.875H39.7021L43.7042 13.0333L28.3333 28.4396V63.75Z" fill="#3046BE"/>
</svg>
