<svg width="40" height="40" viewBox="0 0 40 40" fill="none" xmlns="http://www.w3.org/2000/svg">
<path d="M27.9067 34.7759H29.6156V27.5558H27.9044L27.9067 34.7759ZM32.6067 34.7759H34.3178V27.5558H32.6067V34.7759ZM6.15556 10.4438H29.4044V8.23581H6.15333L6.15556 10.4438ZM31.1111 40C28.6356 40 26.5348 39.1433 24.8089 37.4299C23.083 35.7165 22.2207 33.6285 22.2222 31.1658C22.2237 28.7032 23.0859 26.6166 24.8089 24.9062C26.5319 23.1957 28.6326 22.3383 31.1111 22.3338C33.5896 22.3294 35.6904 23.1869 37.4133 24.9062C39.1363 26.6255 39.9985 28.712 40 31.1658C40.0015 33.6196 39.1393 35.7069 37.4133 37.4277C35.6874 39.1485 33.5867 40.0074 31.1111 40ZM0 37.028V3.56591C0 2.57967 0.34963 1.73843 1.04889 1.04217C1.74815 0.347391 2.59481 0 3.58889 0H31.9667C32.9593 0 33.8059 0.347391 34.5067 1.04217C35.2059 1.73695 35.5556 2.5782 35.5556 3.56591V16.6924C35.1941 16.5599 34.8348 16.4466 34.4778 16.3524C34.1222 16.2582 33.7407 16.1846 33.3333 16.1316V3.56812C33.3333 3.22809 33.1911 2.91602 32.9067 2.63193C32.6222 2.34783 32.3089 2.20652 31.9667 2.20799H3.58889C3.24815 2.20799 2.93481 2.3493 2.64889 2.63193C2.36296 2.91455 2.22074 3.22588 2.22222 3.56591V33.2303H16.32C16.4207 33.8338 16.5511 34.4241 16.7111 35.0011C16.8711 35.5781 17.0956 36.1287 17.3844 36.6527L17.3067 36.73L14.7867 34.904L11.7956 37.0258L8.80444 34.904L5.81111 37.0258L2.82 34.904L0 37.028ZM6.15556 27.0921H16.62C16.703 26.6873 16.8052 26.3082 16.9267 25.955C17.0481 25.6017 17.1911 25.2447 17.3556 24.8841H6.15556V27.0921ZM6.15556 18.7701H22.4C23.1259 18.2005 23.9037 17.7258 24.7333 17.346C25.563 16.9647 26.4496 16.7035 27.3933 16.5622H6.15333L6.15556 18.7701Z" fill="#FBF3F3"/>
</svg>
