<svg width="36" height="36" viewBox="0 0 36 36" fill="none" xmlns="http://www.w3.org/2000/svg">
<path d="M18.006 36C15.518 36 13.178 35.528 10.986 34.584C8.79533 33.6387 6.88933 32.356 5.268 30.736C3.64667 29.116 2.36333 27.212 1.418 25.024C0.472667 22.836 0 20.4967 0 18.006C0 15.5153 0.472 13.1753 1.416 10.986C2.36 8.79667 3.64267 6.89067 5.264 5.268C6.88533 3.64534 8.78933 2.362 10.976 1.418C13.1627 0.474003 15.502 0.00133615 17.994 2.8169e-06C20.486 -0.00133052 22.826 0.470669 25.014 1.416C27.202 2.36134 29.108 3.644 30.732 5.264C32.356 6.884 33.6393 8.788 34.582 10.976C35.5247 13.164 35.9973 15.5033 36 17.994C36.0027 20.4847 35.5307 22.8247 34.584 25.014C33.6373 27.2033 32.3547 29.1093 30.736 30.732C29.1173 32.3547 27.2133 33.638 25.024 34.582C22.8347 35.526 20.4953 35.9987 18.006 36ZM16 33.9V30C14.9 30 13.9587 29.6087 13.176 28.826C12.3933 28.0433 12.0013 27.1013 12 26V24L2.4 14.4C2.3 15 2.20867 15.6 2.126 16.2C2.04333 16.8 2.00133 17.4 2 18C2 22.0333 3.32533 25.5667 5.976 28.6C8.62666 31.6333 11.968 33.4 16 33.9ZM29.8 28.8C30.4667 28.0667 31.0667 27.2753 31.6 26.426C32.1333 25.5767 32.5747 24.6933 32.924 23.776C33.2733 22.8587 33.54 21.9167 33.724 20.95C33.908 19.9833 34 19 34 18C34 14.7147 33.098 11.714 31.294 8.998C29.49 6.282 27.0587 4.324 24 3.124V4C24 5.1 23.6087 6.042 22.826 6.826C22.0433 7.61 21.1013 8.00134 20 8H16V12C16 12.5667 15.808 13.042 15.424 13.426C15.04 13.81 14.5653 14.0013 14 14H10V18H22C22.5667 18 23.042 18.192 23.426 18.576C23.81 18.96 24.0013 19.4347 24 20V26H26C26.8667 26 27.65 26.2587 28.35 26.776C29.05 27.2933 29.5333 27.968 29.8 28.8Z" fill="#F9F4F4"/>
</svg>
