<svg width="77" height="81" viewBox="0 0 77 81" fill="none" xmlns="http://www.w3.org/2000/svg">
<path d="M29.6453 22.7917C32.5849 22.7917 34.9578 25.1646 34.9578 28.1042C34.9578 31.0437 32.5849 33.4167 29.6453 33.4167C26.7057 33.4167 24.3328 31.0437 24.3328 28.1042C24.3328 25.1646 26.7057 22.7917 29.6453 22.7917ZM47.3536 47.5833C50.2932 47.5833 52.6661 49.9562 52.6661 52.8958C52.6661 55.8354 50.2932 58.2083 47.3536 58.2083C44.4141 58.2083 42.0411 55.8354 42.0411 52.8958C42.0411 49.9562 44.4141 47.5833 47.3536 47.5833ZM25.7849 58.2083L20.7911 53.2146L51.2141 22.7917L56.2078 27.7854L25.7849 58.2083ZM62.0516 8.09375L64.212 21.7646L76.6432 28.1042L70.3745 40.5L76.6786 52.8958L64.1411 59.2354L61.9807 72.9062L48.2036 70.7458L38.3932 80.5562L28.5474 70.6042L14.8766 72.8708L12.6807 59.0937L0.320312 52.7896L6.62448 40.3937L0.355729 28.1042L12.787 21.6937L14.9474 8.16458L28.6536 10.3958L38.4995 0.461456L48.2745 10.2542L62.0516 8.09375ZM67.187 31.1854L57.9786 26.3333L56.2078 16.0979L45.937 17.5854L38.4995 10.3958L31.062 17.5854L20.7911 16.0979L19.0203 26.3333L9.81198 31.1854L14.4161 40.5L9.81198 49.8146L19.0203 54.6667L20.7911 64.9021L31.062 63.4146L38.4995 70.6042L45.937 63.4146L56.2078 64.9021L57.9786 54.6667L67.187 49.8146L62.5828 40.5L67.187 31.1854Z" fill="#3046BE"/>
</svg>
