<svg width="40" height="40" viewBox="0 0 40 40" fill="none" xmlns="http://www.w3.org/2000/svg">
<g clip-path="url(#clip0_63_318)">
<path d="M20.1118 12.2227C15.7784 12.2227 12.334 15.6671 12.334 20.0004C12.334 24.3338 15.7784 27.7782 20.1118 27.7782C24.4451 27.7782 27.8895 24.3338 27.8895 20.0004C27.8895 15.6671 24.4451 12.2227 20.1118 12.2227ZM20.1118 25.556C17.0007 25.556 14.5562 23.1115 14.5562 20.0004C14.5562 16.8893 17.0007 14.4449 20.1118 14.4449C23.2229 14.4449 25.6673 16.8893 25.6673 20.0004C25.6673 23.1115 23.2229 25.556 20.1118 25.556Z" fill="#FDF8F8"/>
<path d="M36.4449 16.3338L33.3338 15.3338L32.6671 13.6671L34.2227 10.7782C34.556 10.1115 34.4449 9.22266 33.8893 8.6671L31.2227 6.00043C30.6671 5.44488 29.7782 5.33377 29.1115 5.6671L26.2227 7.22266L24.556 6.55599L23.556 3.44488C23.3338 2.77821 22.6671 2.22266 21.8893 2.22266H18.1115C17.3338 2.22266 16.6671 2.77821 16.556 3.55599L15.556 6.6671C14.8893 6.77821 14.3338 7.00043 13.7782 7.33377L10.8893 5.77821C10.2227 5.44488 9.33377 5.55599 8.77821 6.11155L6.11155 8.77821C5.55599 9.33377 5.44488 10.2227 5.77821 10.8893L7.22266 13.6671C7.00043 14.2227 6.77821 14.8893 6.55599 15.4449L3.44488 16.4449C2.77821 16.6671 2.22266 17.3338 2.22266 18.1115V21.8893C2.22266 22.6671 2.77821 23.3338 3.55599 23.556L6.6671 24.556L7.33377 26.2227L5.77821 29.1115C5.44488 29.7782 5.55599 30.6671 6.11155 31.2227L8.77821 33.8893C9.33377 34.4449 10.2227 34.556 10.8893 34.2227L13.7782 32.6671L15.4449 33.3338L16.4449 36.556C16.6671 37.2227 17.3338 37.7782 18.1115 37.7782H21.8893C22.6671 37.7782 23.3338 37.2227 23.556 36.556L24.556 33.3338L26.2227 32.6671L29.1115 34.2227C29.7782 34.556 30.6671 34.4449 31.2227 33.8893L33.8893 31.2227C34.4449 30.6671 34.556 29.7782 34.2227 29.1115L32.6671 26.2227L33.3338 24.556L36.556 23.556C37.2227 23.3338 37.7782 22.6671 37.7782 21.8893V18.1115C37.7782 17.3338 37.2227 16.556 36.4449 16.3338ZM35.556 21.556L31.556 22.7782L31.4449 23.3338L30.4449 25.6671L30.1115 26.2227L32.1115 29.8893L29.8893 32.1115L26.2227 30.1115L25.6671 30.4449C24.8893 30.8893 24.1115 31.2227 23.3338 31.4449L22.7782 31.556L21.556 35.556H18.4449L17.2227 31.556L16.6671 31.4449L14.3338 30.4449L13.7782 30.1115L10.1115 32.1115L7.88932 29.8893L9.88932 26.2227L9.55599 25.6671C9.11155 24.8893 8.77821 24.1115 8.55599 23.3338L8.44488 22.7782L4.44488 21.556V18.4449L8.22266 17.3338L8.44488 16.7782C8.6671 15.8893 9.00043 15.1115 9.44488 14.3338L9.77821 13.7782L7.88932 10.1115L10.1115 7.88932L13.6671 9.88932L14.2227 9.55599C15.0004 9.11155 15.7782 8.77821 16.6671 8.55599L17.2227 8.33377L18.4449 4.44488H21.556L22.7782 8.33377L23.3338 8.55599C24.1115 8.77821 24.8893 9.11155 25.6671 9.55599L26.2227 9.88932L29.8893 7.88932L32.1115 10.1115L30.1115 13.7782L30.4449 14.3338C30.8893 15.1115 31.2227 15.8893 31.4449 16.6671L31.556 17.2227L35.556 18.4449V21.556Z" fill="#FDF8F8"/>
</g>
<defs>
<clipPath id="clip0_63_318">
<rect width="40" height="40" fill="white"/>
</clipPath>
</defs>
</svg>
