<svg width="40" height="36" viewBox="0 0 40 36" fill="none" xmlns="http://www.w3.org/2000/svg">
<path d="M18.296 24.7189C20.0006 23.114 21.2948 20.776 21.9871 18.0505C22.6794 15.3251 22.7331 12.3569 22.1404 9.58485C21.5476 6.81285 20.3397 4.38422 18.6954 2.65809C17.0511 0.931971 15.0577 0 13.0099 0C10.9621 0 8.96862 0.931971 7.32432 2.65809C5.68002 4.38422 4.47217 6.81285 3.87938 9.58485C3.28659 12.3569 3.34033 15.3251 4.03265 18.0505C4.72497 20.776 6.01912 23.114 7.72373 24.7189C4.64027 26.3261 2.00692 29.3001 0.216617 33.1973C0.122525 33.3951 0.0571683 33.6173 0.0243464 33.8511C-0.00847544 34.0849 -0.00810796 34.3256 0.0254275 34.5592C0.0589629 34.7928 0.124997 35.0147 0.219692 35.2118C0.314388 35.409 0.435854 35.5776 0.577032 35.7079C0.71821 35.8381 0.876283 35.9273 1.04206 35.9704C1.20784 36.0135 1.37802 36.0095 1.54271 35.9587C1.70739 35.908 1.8633 35.8114 2.00137 35.6747C2.13944 35.538 2.25692 35.3638 2.34697 35.1623C3.5018 32.6505 5.08202 30.5864 6.94414 29.1575C8.80626 27.7286 10.8913 26.9801 13.0099 26.9801C15.1284 26.9801 17.2135 27.7286 19.0756 29.1575C20.9377 30.5864 22.5179 32.6505 23.6728 35.1623C23.8593 35.5544 24.1475 35.8269 24.475 35.9209C24.8024 36.015 25.1429 35.9229 25.4228 35.6648C25.7027 35.4066 25.8995 35.003 25.9707 34.5413C26.0418 34.0796 25.9817 33.5968 25.8031 33.1973C24.0128 29.3001 21.3795 26.3261 18.296 24.7189ZM6.01468 13.4953C6.01468 11.5388 6.42494 9.62615 7.19358 7.99932C7.96222 6.3725 9.05472 5.10454 10.3329 4.3558C11.6111 3.60705 13.0176 3.41115 14.3746 3.79285C15.7315 4.17456 16.9779 5.11674 17.9562 6.50024C18.9345 7.88374 19.6007 9.64642 19.8706 11.5654C20.1406 13.4844 20.002 15.4734 19.4726 17.2811C18.9431 19.0887 18.0465 20.6337 16.8962 21.7207C15.7458 22.8077 14.3934 23.3879 13.0099 23.3879C11.1553 23.3849 9.37724 22.3417 8.06584 20.4872C6.75445 18.6326 6.01678 16.1181 6.01468 13.4953ZM39.4231 35.6862C39.1406 35.9467 38.7964 36.0379 38.4664 35.9396C38.1364 35.8414 37.8474 35.5618 37.6631 35.1623C36.5097 32.649 34.9297 30.584 33.0672 29.1557C31.2047 27.7274 29.119 26.9812 27.0002 26.9852C26.6629 26.9852 26.3394 26.7957 26.1009 26.4584C25.8624 26.1211 25.7284 25.6636 25.7284 25.1866C25.7284 24.7095 25.8624 24.252 26.1009 23.9147C26.3394 23.5774 26.6629 23.3879 27.0002 23.3879C28.0304 23.3865 29.0476 23.0634 29.9792 22.4416C30.9108 21.8198 31.7339 20.9147 32.3894 19.791C33.045 18.6673 33.517 17.3526 33.7717 15.941C34.0264 14.5294 34.0574 13.0556 33.8627 11.6251C33.6679 10.1945 33.2522 8.84244 32.6451 7.66546C32.038 6.48848 31.2546 5.51565 30.3508 4.81648C29.447 4.11731 28.4452 3.70907 27.417 3.6209C26.3887 3.53274 25.3594 3.76685 24.4025 4.30649C24.2465 4.40187 24.0785 4.45206 23.9086 4.45409C23.7386 4.45612 23.5701 4.40995 23.4129 4.31832C23.2558 4.22668 23.1133 4.09143 22.9937 3.92057C22.8742 3.7497 22.7801 3.54668 22.7169 3.32351C22.6538 3.10033 22.623 2.86152 22.6262 2.6212C22.6294 2.38088 22.6667 2.14391 22.7358 1.9243C22.8049 1.70469 22.9044 1.50689 23.0285 1.3426C23.1526 1.17831 23.2987 1.05084 23.4581 0.96775C25.648 -0.267357 28.0838 -0.311803 30.2955 0.842984C32.5072 1.99777 34.3382 4.26997 35.4352 7.22124C36.5322 10.1725 36.8174 13.5937 36.236 16.8249C35.6545 20.0561 34.2475 22.8682 32.2864 24.7189C35.3699 26.3261 38.0032 29.3001 39.7935 33.1973C39.9777 33.5968 40.0422 34.0835 39.9727 34.5502C39.9033 35.0169 39.7055 35.4255 39.4231 35.6862Z" fill="#FCF3F3"/>
</svg>
