<svg width="100" height="85" viewBox="0 0 100 85" fill="none" xmlns="http://www.w3.org/2000/svg">
<path d="M45.74 58.3641C50.0015 54.5748 53.2369 49.0544 54.9677 42.6193C56.6985 36.1842 56.8329 29.1759 55.3509 22.6309C53.8689 16.0859 50.8493 10.3516 46.7385 6.27606C42.6278 2.20049 37.6442 0 32.5247 0C27.4052 0 22.4215 2.20049 18.3108 6.27606C14.2001 10.3516 11.1804 16.0859 9.69845 22.6309C8.21647 29.1759 8.35081 36.1842 10.0816 42.6193C11.8124 49.0544 15.0478 54.5748 19.3093 58.3641C11.6007 62.1588 5.01729 69.1809 0.541542 78.3825C0.306312 78.8494 0.142921 79.3742 0.060866 79.9262C-0.0211886 80.4783 -0.0202699 81.0466 0.0635687 81.5981C0.147407 82.1497 0.312493 82.6735 0.549231 83.1391C0.785969 83.6047 1.08964 84.0028 1.44258 84.3102C1.79553 84.6177 2.19071 84.8284 2.60516 84.9301C3.0196 85.0318 3.44505 85.0224 3.85677 84.9026C4.26849 84.7827 4.65826 84.5548 5.00343 84.2319C5.34861 83.9091 5.6423 83.4979 5.86743 83.0221C8.75449 77.0914 12.7051 72.2178 17.3604 68.844C22.0157 65.4702 27.2282 63.7031 32.5247 63.7031C37.8211 63.7031 43.0337 65.4702 47.689 68.844C52.3443 72.2178 56.2948 77.0914 59.1819 83.0221C59.6483 83.9479 60.3687 84.5913 61.1874 84.8133C62.0061 85.0353 62.8573 84.818 63.5571 84.2085C64.2568 83.5989 64.7488 82.646 64.9267 81.5558C65.1046 80.4656 64.9541 79.3257 64.5078 78.3825C60.032 69.1809 53.4487 62.1588 45.74 58.3641ZM15.0367 31.864C15.0367 27.2443 16.0623 22.7284 17.9839 18.8873C19.9055 15.0462 22.6368 12.0524 25.8323 10.2845C29.0278 8.51665 32.5441 8.0541 35.9364 8.95535C39.3287 9.8566 42.4448 12.0812 44.8905 15.3478C47.3363 18.6144 49.0018 22.7763 49.6766 27.3072C50.3514 31.8381 50.0051 36.5345 48.6814 40.8025C47.3578 45.0705 45.1163 48.7184 42.2405 51.285C39.3646 53.8515 35.9835 55.2214 32.5247 55.2214C27.8882 55.2144 23.4431 52.7513 20.1646 48.3724C16.8861 43.9936 15.0419 38.0566 15.0367 31.864ZM98.5577 84.259C97.8514 84.8741 96.9911 85.0894 96.166 84.8574C95.3409 84.6255 94.6186 83.9653 94.1579 83.0221C91.2743 77.0878 87.3242 72.2122 82.668 68.8398C78.0117 65.4674 72.7974 63.7056 67.5006 63.7151C66.6573 63.7151 65.8486 63.2676 65.2523 62.4712C64.656 61.6748 64.321 60.5946 64.321 59.4682C64.321 58.3419 64.656 57.2617 65.2523 56.4653C65.8486 55.6689 66.6573 55.2214 67.5006 55.2214C70.076 55.2182 72.6191 54.4553 74.9481 52.9872C77.2771 51.5191 79.3346 49.382 80.9736 46.7287C82.6126 44.0755 83.7926 40.9714 84.4293 37.6385C85.066 34.3055 85.1436 30.8258 84.6567 27.4481C84.1698 24.0704 83.1304 20.878 81.6127 18.099C80.095 15.32 78.1364 13.0231 75.877 11.3723C73.6176 9.72144 71.1131 8.75752 68.5424 8.54936C65.9718 8.3412 63.3984 8.89395 61.0062 10.1681C60.6162 10.3933 60.1963 10.5118 59.7714 10.5166C59.3465 10.5214 58.9252 10.4124 58.5324 10.196C58.1395 9.97967 57.7832 9.66033 57.4843 9.2569C57.1854 8.85346 56.9501 8.37411 56.7923 7.84717C56.6345 7.32023 56.5574 6.75638 56.5655 6.18894C56.5736 5.62151 56.6668 5.062 56.8395 4.54348C57.0123 4.02496 57.2611 3.55794 57.5712 3.17003C57.8814 2.78211 58.2466 2.48116 58.6453 2.28497C64.1201 -0.631259 70.2095 -0.736202 75.7388 1.99038C81.2681 4.71696 85.8455 10.0819 88.5879 17.0501C91.3304 24.0184 92.0436 32.0963 90.5899 39.7255C89.1362 47.3546 85.6187 53.9945 80.716 58.3641C88.4246 62.1588 95.008 69.1809 99.4837 78.3825C99.9443 79.3258 100.105 80.4748 99.9318 81.5769C99.7581 82.6789 99.2639 83.6437 98.5577 84.259Z" fill="#3046BE"/>
</svg>
